<mxfile host="app.diagrams.net" modified="2022-07-19T21:22:27.877Z" agent="5.0 (Windows)" etag="OYEhMuEjvTo6BB0qXZeU" version="20.1.1" type="github">
  <diagram id="yWQKVTWnlPdVZ_UfO4Iy" name="Page-1">
    <mxGraphModel dx="868" dy="480" grid="1" gridSize="10" guides="1" tooltips="1" connect="1" arrows="1" fold="1" page="1" pageScale="1" pageWidth="850" pageHeight="1100" math="0" shadow="0">
      <root>
        <mxCell id="0" />
        <mxCell id="1" parent="0" />
      </root>
    </mxGraphModel>
  </diagram>
</mxfile>
